<?xml version="1.0" standalone="no"?>
<!DOCTYPE svg PUBLIC "-//W3C//DTD SVG 20010904//EN"
 "http://www.w3.org/TR/2001/REC-SVG-20010904/DTD/svg10.dtd">
<svg version="1.0" xmlns="http://www.w3.org/2000/svg"
 width="512.000000pt" height="512.000000pt" viewBox="0 0 512.000000 512.000000"
 preserveAspectRatio="xMidYMid meet">
<metadata>
Created by potrace 1.14, written by Peter Selinger 2001-2017
</metadata>
<g transform="translate(0.000000,512.000000) scale(0.100000,-0.100000)"
fill="#000000" stroke="none">
<path d="M2304 4470 c-38 -15 -66 -61 -61 -100 8 -75 48 -102 147 -102 33 0
60 -3 61 -7 11 -68 -2 -111 -34 -111 -49 0 -219 -50 -301 -89 -277 -129 -486
-368 -575 -655 -21 -70 -25 -87 -37 -163 l-6 -43 -232 -1 c-127 0 -239 -2
-249 -4 -43 -8 -108 -58 -134 -103 -26 -44 -28 -55 -27 -157 0 -119 14 -164
66 -212 61 -57 46 -56 763 -57 l660 -1 1 -778 c1 -691 -1 -782 -15 -810 -11
-21 -58 -59 -148 -119 -73 -49 -137 -98 -144 -109 -15 -28 -15 -110 0 -146 26
-64 22 -63 521 -63 499 0 495 0 521 63 17 41 14 120 -6 150 -9 14 -71 61 -139
106 -67 44 -131 90 -142 102 -18 20 -19 44 -19 813 l0 791 610 1 c599 1 611 1
651 22 54 27 100 82 114 132 6 23 10 81 9 131 -2 103 -21 153 -76 198 -53 44
-94 51 -286 51 l-175 0 -7 53 c-37 275 -223 569 -458 723 -130 86 -309 156
-430 170 -62 7 -63 8 -61 50 1 22 3 46 3 54 1 12 15 16 62 17 80 2 114 17 134
60 21 44 13 92 -21 124 -25 24 -27 24 -272 26 -136 1 -257 -2 -268 -7z"/>
<path d="M190 3409 c-79 -9 -144 -58 -174 -130 -14 -33 -15 -141 -3 -204 6
-28 18 -114 22 -150 3 -31 23 -181 30 -225 2 -14 6 -45 9 -70 3 -25 15 -115
26 -200 11 -85 30 -222 40 -305 11 -82 23 -172 26 -200 14 -136 83 -244 183
-289 22 -11 41 -23 41 -27 0 -4 -25 -119 -56 -256 -30 -136 -57 -257 -60 -268
-3 -19 -6 -33 -20 -95 -3 -14 -7 -35 -10 -48 -3 -13 -13 -59 -24 -103 -26
-109 -16 -155 40 -184 68 -35 135 -1 156 80 6 24 46 202 50 225 3 14 12 54 20
90 9 36 18 76 20 90 3 14 14 66 26 115 17 78 40 181 66 305 l8 35 384 2 385 3
110 -448 c121 -492 124 -499 197 -509 64 -8 118 39 118 103 0 13 -25 125 -56
247 -31 122 -58 231 -60 242 -2 11 -24 98 -48 193 -45 182 -45 173 -1 172 18
-1 85 35 108 58 70 66 81 137 46 275 -26 103 -62 170 -114 212 -96 77 -121 81
-528 80 l-338 0 -9 35 c-36 138 -128 480 -161 602 -22 81 -42 155 -44 165 -15
69 -69 251 -80 272 -26 50 -89 97 -143 108 -40 7 -131 9 -182 2z"/>
<path d="M4780 3409 c-106 -11 -167 -66 -198 -176 -39 -137 -64 -228 -67 -243
-2 -8 -19 -76 -40 -150 -53 -197 -87 -323 -90 -340 -2 -8 -14 -55 -28 -105
-14 -49 -31 -108 -36 -130 l-10 -40 -353 0 c-311 0 -358 -2 -403 -18 -126 -44
-190 -126 -231 -298 -4 -13 -8 -51 -11 -85 -6 -72 15 -123 71 -172 32 -28 89
-52 124 -52 16 0 15 -20 -4 -94 -9 -33 -17 -68 -19 -76 -2 -8 -40 -160 -84
-337 -45 -178 -81 -336 -81 -353 0 -45 46 -91 97 -97 35 -4 46 0 73 24 30 27
36 45 131 428 54 220 104 418 110 440 6 22 13 46 15 53 3 9 88 12 383 12 l380
0 10 -37 c6 -21 18 -72 26 -113 9 -41 18 -82 20 -90 7 -31 73 -330 80 -365 13
-63 49 -218 61 -263 22 -80 86 -112 154 -77 53 28 65 70 45 159 -8 33 -16 72
-18 86 -3 14 -12 52 -20 85 -8 33 -18 78 -23 100 -9 49 -4 29 -49 225 -20 91
-39 176 -41 190 -3 14 -9 41 -14 60 -15 53 -13 57 29 74 52 20 113 82 145 144
21 41 31 93 56 279 17 125 32 242 35 258 2 17 6 53 10 80 3 28 8 61 10 75 2
14 7 43 9 65 9 70 47 359 51 385 2 14 7 50 11 80 4 30 9 64 10 75 13 84 12
171 -2 204 -45 109 -147 149 -324 130z"/>
</g>
</svg>
